<svg viewBox="0 0 24 24" fill="currentColor" xmlns="http://www.w3.org/2000/svg">
<path fill-rule="evenodd" clip-rule="evenodd" d="M6.87549 4.6521C7.44149 4.6531 7.89949 5.1111 7.90049 5.6771C7.89949 6.2431 7.44149 6.7011 6.87549 6.7021C6.30949 6.7011 5.85149 6.2431 5.85049 5.6771C5.85149 5.1111 6.30949 4.6531 6.87549 4.6521ZM3.27549 6.4521H4.42549C4.76149 7.5201 5.74749 8.2541 6.87349 8.2541C7.99849 8.2541 8.98449 7.5201 9.32049 6.4521H20.8255C21.2535 6.4521 21.5995 6.1051 21.5995 5.6771C21.5995 5.2491 21.2535 4.9021 20.8255 4.9021H9.32449C8.98949 3.8351 8.00249 3.1001 6.87749 3.1001C5.75249 3.1001 4.76549 3.8351 4.43049 4.9021H3.27549C2.84749 4.9021 2.50049 5.2491 2.50049 5.6771C2.50049 6.1051 2.84749 6.4521 3.27549 6.4521Z" fill="currentColor"/>
<path fill-rule="evenodd" clip-rule="evenodd" d="M13.075 12.202C13.074 12.768 12.617 13.226 12.05 13.227C11.484 13.226 11.026 12.768 11.025 12.202C11.026 11.636 11.484 11.178 12.05 11.177C12.617 11.178 13.074 11.636 13.075 12.202ZM20.825 11.202H14.417C14.017 10.249 13.088 9.62305 12.05 9.62305C11.012 9.62305 10.083 10.249 9.683 11.202H3.275C2.847 11.202 2.5 11.549 2.5 11.977C2.5 12.405 2.847 12.752 3.275 12.752H9.545C9.806 13.926 10.843 14.768 12.053 14.768C13.262 14.768 14.299 13.926 14.56 12.752H20.825C21.254 12.752 21.599 12.405 21.599 11.977C21.599 11.549 21.254 11.202 20.825 11.202Z" fill="currentColor"/>
<path fill-rule="evenodd" clip-rule="evenodd" d="M17.2255 19.3027C16.6605 19.3017 16.2015 18.8427 16.2005 18.2777C16.2015 17.7117 16.6605 17.2527 17.2255 17.2517C17.7905 17.2527 18.2495 17.7117 18.2505 18.2777C18.2495 18.8427 17.7905 19.3017 17.2255 19.3027ZM20.8255 17.5027H19.6745C19.3395 16.4347 18.3525 15.7007 17.2275 15.7007C16.1025 15.7007 15.1165 16.4347 14.7805 17.5027H3.27549C2.84749 17.5027 2.50149 17.8497 2.50049 18.2777C2.50149 18.7057 2.84749 19.0517 3.27549 19.0517H14.7755C15.1115 20.1197 16.0975 20.8537 17.2225 20.8537C18.3485 20.8537 19.3345 20.1197 19.6705 19.0517H20.8255C21.2525 19.0517 21.5995 18.7057 21.5995 18.2777C21.5995 17.8497 21.2525 17.5027 20.8255 17.5027Z" fill="currentColor"/>
</svg>
