<svg viewBox="0 0 24 24" fill="currentColor" xmlns="http://www.w3.org/2000/svg">
<path d="M13.1967 5.4H14.887C15.2808 5.4 15.6 5.72038 15.6 6.11566C15.6 6.51095 15.2808 6.83133 14.8869 6.83133H13.1967C12.5996 6.83133 12.1139 7.31885 12.1139 7.9181V9.82653H14.5502C14.9441 9.82653 15.2633 10.1469 15.2633 10.5422C15.2633 10.9375 14.9441 11.2579 14.5502 11.2579H12.1139V17.8843C12.1139 18.2796 11.7947 18.6 11.4008 18.6C11.007 18.6 10.6878 18.2796 10.6878 17.8843V11.2579H9.11307C8.71922 11.2579 8.4 10.9375 8.4 10.5422C8.4 10.1469 8.71922 9.82653 9.11307 9.82653H10.6878V7.9181C10.6878 6.52963 11.8133 5.4 13.1967 5.4Z" fill="currentColor"/>
<path fill-rule="evenodd" clip-rule="evenodd" d="M12 0C18.6274 0 24 5.37258 24 12C24 18.6274 18.6274 24 12 24C5.37258 24 0 18.6274 0 12C0 5.37258 5.37258 0 12 0ZM12 1.5C6.20101 1.5 1.5 6.20101 1.5 12C1.5 17.799 6.20101 22.5 12 22.5C17.799 22.5 22.5 17.799 22.5 12C22.5 6.20101 17.799 1.5 12 1.5Z" fill="currentColor"/>
</svg>
