<svg width="12" height="12" viewBox="0 0 12 12" fill="none" xmlns="http://www.w3.org/2000/svg">
<g id="Icon&#239;&#189;&#156;System, Social">
<rect id="Rectangle" opacity="0.01" width="12" height="12" fill="white"/>
<path id="Combined Shape" fill-rule="evenodd" clip-rule="evenodd" d="M11 6C11 3.23858 8.76142 1 6 1C3.23858 1 1 3.23858 1 6C1 8.76142 3.23858 11 6 11C8.76142 11 11 8.76142 11 6ZM1.75 6C1.75 3.65279 3.65279 1.75 6 1.75C8.34721 1.75 10.25 3.65279 10.25 6C10.25 8.34721 8.34721 10.25 6 10.25C3.65279 10.25 1.75 8.34721 1.75 6ZM6 7.625C6.18985 7.625 6.34675 7.76608 6.37158 7.94911L6.375 8V8.5C6.375 8.70711 6.20711 8.875 6 8.875C5.81015 8.875 5.65325 8.73392 5.62842 8.55089L5.625 8.5V8C5.625 7.79289 5.79289 7.625 6 7.625ZM6.37158 3.44911C6.34675 3.26608 6.18985 3.125 6 3.125C5.79289 3.125 5.625 3.29289 5.625 3.5V6.5L5.62842 6.55089C5.65325 6.73392 5.81015 6.875 6 6.875C6.20711 6.875 6.375 6.70711 6.375 6.5V3.5L6.37158 3.44911Z" fill="white"/>
</g>
</svg>
