<svg viewBox="0 0 24 24" fill="currentColor" xmlns="http://www.w3.org/2000/svg">
<path fill-rule="evenodd" clip-rule="evenodd" d="M5.76551 16.7068H17.6035C17.8505 17.3588 18.2495 17.9388 18.7635 18.4078H4.60551C5.11951 17.9388 5.51851 17.3588 5.76551 16.7068ZM11.6825 3.43276C12.1025 3.46976 12.4615 3.73076 12.6445 4.10576C12.3265 4.04576 12.0045 4.00676 11.6825 4.00676C11.3605 4.00676 11.0375 4.04576 10.7195 4.10576C10.9035 3.73076 11.2615 3.46976 11.6825 3.43276ZM6.78251 10.8078C6.78251 9.56076 7.30151 8.22076 8.17551 7.19476C9.04851 6.16776 10.2735 5.45676 11.6825 5.45676C13.0915 5.45676 14.3155 6.16776 15.1885 7.19476C16.0625 8.22076 16.5815 9.56076 16.5815 10.8078C16.5795 10.8998 16.5795 10.9918 16.5795 11.0838C16.5795 12.4908 16.7535 13.8918 17.0965 15.2578H6.26851C6.60951 13.8948 6.78551 12.4958 6.78551 11.0918C6.78551 10.9978 6.78451 10.9018 6.78251 10.8078ZM11.6225 20.4958C11.0155 20.4958 10.4365 20.2598 9.98851 19.8528H13.2675C12.8255 20.2558 12.2525 20.4908 11.6505 20.4958H11.6225ZM20.2395 18.8588C20.2845 18.7208 20.3065 18.5798 20.3065 18.4398C20.3065 17.9968 20.0845 17.5708 19.6995 17.3188V17.3178C19.5255 17.1568 18.0335 15.6398 18.0325 10.8078C17.9965 9.14076 17.3815 7.53776 16.2915 6.27576C15.7135 5.58376 14.9985 5.01976 14.1935 4.61776V4.52476C14.1935 3.13076 13.0635 1.99976 11.6685 1.99976C10.2745 1.99976 9.14351 3.13076 9.14351 4.52476V4.61776C8.33851 5.02076 7.62351 5.58276 7.04451 6.27476C5.95551 7.53776 5.34051 9.13976 5.30551 10.8068C5.30451 15.6298 3.81651 17.1438 3.64251 17.3048C3.23751 17.5518 2.99951 17.9878 2.99951 18.4458C2.99951 18.5738 3.01851 18.7038 3.05751 18.8318C3.24051 19.4338 3.79451 19.8438 4.42151 19.8438H8.76651C8.67651 19.9688 8.61951 20.1108 8.61951 20.2568C8.61951 20.4358 8.68751 20.6158 8.82051 20.7548C9.55551 21.5108 10.5655 21.9368 11.6195 21.9368C12.6735 21.9368 13.6825 21.5108 14.4175 20.7548L14.4185 20.7538C14.5425 20.6168 14.6055 20.4438 14.6055 20.2708C14.6055 20.1288 14.5525 19.9928 14.4695 19.8708H18.8745C19.5005 19.8708 20.0555 19.4608 20.2385 18.8598L20.2395 18.8588Z" fill="currentColor"/>
</svg>
