<svg viewBox="0 0 24 24" fill="none" xmlns="http://www.w3.org/2000/svg">
<path fill-rule="evenodd" clip-rule="evenodd" d="M12.4648 17.2446C12.1734 17.0915 11.8254 17.0915 11.5341 17.2446L7.91504 19.1473C7.18141 19.533 6.32398 18.91 6.46409 18.0931L7.15526 14.0633C7.2109 13.7389 7.10335 13.4079 6.86766 13.1781L3.9398 10.3242C3.34628 9.74562 3.67379 8.73765 4.49401 8.61846L8.54022 8.03051C8.86593 7.98319 9.1475 7.77862 9.29316 7.48347L11.1027 3.81699C11.4695 3.07374 12.5293 3.07374 12.8962 3.81699L14.7057 7.48347C14.8513 7.77862 15.1329 7.98319 15.4586 8.03051L19.5048 8.61846C20.325 8.73765 20.6525 9.74562 20.059 10.3242L17.1312 13.1781C16.8955 13.4079 16.7879 13.7389 16.8436 14.0633L17.5347 18.0931C17.6749 18.91 16.8174 19.533 16.0838 19.1473L12.4648 17.2446Z" fill="currentColor"/>
</svg>
