<svg viewBox="0 0 24 24" fill="currentColor" xmlns="http://www.w3.org/2000/svg">
<path fill-rule="evenodd" clip-rule="evenodd" d="M16.1481 12C16.1481 9.70904 14.291 7.85185 12 7.85185C9.70904 7.85185 7.85185 9.70904 7.85185 12C7.85185 14.291 9.70904 16.1481 12 16.1481C14.291 16.1481 16.1481 14.291 16.1481 12ZM9.40741 12C9.40741 10.5682 10.5682 9.40741 12 9.40741C13.4318 9.40741 14.5926 10.5682 14.5926 12C14.5926 13.4318 13.4318 14.5926 12 14.5926C10.5682 14.5926 9.40741 13.4318 9.40741 12Z" fill="currentColor"/>
<path d="M15.8889 8.88889C16.3184 8.88889 16.6667 8.54067 16.6667 8.11111C16.6667 7.68156 16.3184 7.33333 15.8889 7.33333C15.4593 7.33333 15.1111 7.68156 15.1111 8.11111C15.1111 8.54067 15.4593 8.88889 15.8889 8.88889Z" fill="currentColor"/>
<path fill-rule="evenodd" clip-rule="evenodd" d="M19 6.81481C19 5.81252 18.1875 5 17.1852 5H6.81481C5.81252 5 5 5.81252 5 6.81481V17.1852C5 18.1875 5.81252 19 6.81481 19H17.1852C18.1875 19 19 18.1875 19 17.1852V6.81481ZM6.55556 6.81481C6.55556 6.67163 6.67163 6.55556 6.81481 6.55556H17.1852C17.3284 6.55556 17.4444 6.67163 17.4444 6.81481V17.1852C17.4444 17.3284 17.3284 17.4444 17.1852 17.4444H6.81481C6.67163 17.4444 6.55556 17.3284 6.55556 17.1852V6.81481Z" fill="currentColor"/>
<path fill-rule="evenodd" clip-rule="evenodd" d="M12 0C18.6274 0 24 5.37258 24 12C24 18.6274 18.6274 24 12 24C5.37258 24 0 18.6274 0 12C0 5.37258 5.37258 0 12 0ZM12 1.5C6.20101 1.5 1.5 6.20101 1.5 12C1.5 17.799 6.20101 22.5 12 22.5C17.799 22.5 22.5 17.799 22.5 12C22.5 6.20101 17.799 1.5 12 1.5Z" fill="currentColor"/>
</svg>
