<svg viewBox="0 0 24 24" fill="currentColor" xmlns="http://www.w3.org/2000/svg">
<path fill-rule="evenodd" clip-rule="evenodd" d="M12 11.5C10.6193 11.5 9.5 12.6193 9.5 14C9.5 15.1194 10.2357 16.067 11.25 16.3855V18L11.2568 18.1018C11.3065 18.4678 11.6203 18.75 12 18.75C12.4142 18.75 12.75 18.4142 12.75 18V16.3855C13.7643 16.067 14.5 15.1194 14.5 14C14.5 12.6193 13.3807 11.5 12 11.5ZM12 13C12.5523 13 13 13.4477 13 14C13 14.5523 12.5523 15 12 15C11.4477 15 11 14.5523 11 14C11 13.4477 11.4477 13 12 13Z" fill="currentColor"/>
<path fill-rule="evenodd" clip-rule="evenodd" d="M5 8H7.00078C7.0483 4.95336 9.26833 2.5 12 2.5C14.7317 2.5 16.9517 4.95336 16.9992 8H19C19.5523 8 20 8.44772 20 9V21C20 21.5523 19.5523 22 19 22H5C4.44772 22 4 21.5523 4 21V9C4 8.44772 4.44772 8 5 8ZM8.50467 7.88566C8.60073 5.6893 10.1664 4 12 4L12.1766 4.00523C13.9331 4.10951 15.4024 5.76015 15.4953 7.88566L15.498 7.999H8.502L8.50467 7.88566ZM5.5 9.5V20.5H18.5V9.5H5.5Z" fill="currentColor"/>
</svg>
