<svg viewBox="0 0 24 24" fill="currentColor" xmlns="http://www.w3.org/2000/svg">
<path fill-rule="evenodd" clip-rule="evenodd" d="M11.9502 2.69995C8.77456 2.69995 6.2002 5.27431 6.2002 8.44995C6.2002 10.3736 7.1448 12.0766 8.59547 13.1204C4.88274 14.0856 2.2002 16.6137 2.2002 19.6722C2.2002 20.5875 3.08605 21.2 4.0752 21.2H19.8252C20.2703 21.2 20.7055 21.0753 21.0472 20.8391C21.4493 20.5611 21.7002 20.1423 21.7002 19.6722C21.7002 16.6137 19.0176 14.0856 15.3049 13.1204C16.7556 12.0766 17.7002 10.3736 17.7002 8.44995C17.7002 6.92496 17.0944 5.46242 16.0161 4.38409C14.9377 3.30575 13.4752 2.69995 11.9502 2.69995ZM11.9502 12.7C14.2974 12.7 16.2002 10.7972 16.2002 8.44995C16.2002 7.32278 15.7524 6.24178 14.9554 5.44475C14.1584 4.64772 13.0774 4.19995 11.9502 4.19995C9.60299 4.19995 7.7002 6.10274 7.7002 8.44995C7.7002 10.7972 9.60299 12.7 11.9502 12.7ZM11.9502 14.2C7.34746 14.2 3.7002 16.7215 3.7002 19.671L3.70767 19.656C3.72008 19.6486 3.74801 19.6549 3.79194 19.6648C3.854 19.6788 3.94798 19.7 4.0752 19.7H19.8252C19.9768 19.7 20.114 19.6607 20.1982 19.603L20.1955 19.4883C20.051 16.6786 16.6083 14.303 12.2366 14.2032L11.9502 14.2Z" fill="currentColor"/>
</svg>
