<svg viewBox="0 0 24 24" fill="currentColor" xmlns="http://www.w3.org/2000/svg">
<path fill-rule="evenodd" clip-rule="evenodd" d="M19.49 16.7023V11.6326C19.49 9.58948 18.9991 7.77437 17.8297 6.45597C16.6425 5.11756 14.9564 4.51501 13.0435 4.50671C12.1582 4.46432 11.2753 4.62313 10.459 4.97088C10.2079 5.07785 9.96515 5.2018 9.7323 5.34156C9.15401 4.8774 8.42892 4.63468 7.6863 4.66161C7.25702 4.65295 6.8309 4.73385 6.43445 4.8989C6.0128 5.07444 5.63609 5.34039 5.32923 5.67625C5.02247 6.012 4.79262 6.40974 4.65364 6.84113C4.52468 7.24137 4.47636 7.66297 4.51073 8.08112V16.7C4.47653 17.118 4.52479 17.5395 4.65349 17.9397C4.79215 18.3708 5.02137 18.7685 5.32731 19.1046C5.63335 19.4407 6.00911 19.7073 6.42991 19.884C6.8284 20.0513 7.25719 20.1336 7.68936 20.1254C8.12468 20.1389 8.55766 20.0605 8.96071 19.8955C9.38615 19.7212 9.76663 19.4554 10.0768 19.1185C10.3869 18.7818 10.6194 18.3821 10.7601 17.9481C10.8907 17.5454 10.9398 17.1208 10.9052 16.6996V12.3676C10.9052 11.6216 11.1035 11.2049 11.2812 10.9987C11.4378 10.8168 11.6811 10.6741 12.1118 10.6741C12.619 10.6741 12.7709 10.8155 12.828 10.8818C12.9193 10.9878 13.0892 11.2942 13.0892 12.0359V16.7C13.055 17.118 13.1033 17.5395 13.232 17.9397C13.3706 18.3708 13.5998 18.7685 13.9058 19.1046C14.2118 19.4407 14.5876 19.7073 15.0084 19.884C15.407 20.0513 15.836 20.1337 16.2683 20.1254C16.7034 20.1387 17.1361 20.0603 17.539 19.8956C17.9642 19.7219 18.3446 19.4567 18.6551 19.1207C18.9656 18.7849 19.1988 18.3861 19.3408 17.953C19.4729 17.5497 19.5234 17.1244 19.49 16.7023ZM16.2769 18.6245C16.514 18.6373 16.751 18.5973 16.9715 18.5072C17.1919 18.417 17.3906 18.279 17.5535 18.1027C17.7165 17.9263 17.84 17.7158 17.9154 17.4858C17.9907 17.2559 18.0162 17.0119 17.99 16.7709V11.6326C17.99 7.98387 16.2323 6.00663 13.0034 6.00663C12.3342 5.96971 11.6654 6.08738 11.0468 6.35088C10.9107 6.4089 10.7777 6.47365 10.6484 6.54482C10.1936 6.79509 9.78384 7.12474 9.43825 7.51988C9.43571 7.52278 9.43318 7.52568 9.43065 7.52858H9.38608C9.3835 7.51318 9.38072 7.49782 9.37773 7.48253C9.303 7.10078 9.09799 6.75787 8.79846 6.51545C8.70548 6.4402 8.60535 6.37622 8.50008 6.32415C8.25262 6.20176 7.97673 6.14517 7.6984 6.16273C7.46338 6.15172 7.22883 6.19299 7.01096 6.28369C6.7931 6.37439 6.59713 6.51235 6.43662 6.68803C6.27611 6.8637 6.1549 7.07289 6.08136 7.30113C6.00783 7.52936 5.98373 7.77119 6.01073 8.00988V16.7709C5.98385 17.0098 6.00797 17.2519 6.08147 17.4805C6.15496 17.709 6.27608 17.9186 6.43646 18.0947C6.59685 18.2709 6.79271 18.4095 7.01055 18.5009C7.2284 18.5924 7.46307 18.6346 7.6984 18.6245C7.9353 18.6375 8.17211 18.5975 8.39231 18.5073C8.61251 18.4171 8.81078 18.279 8.9733 18.1025C9.13582 17.926 9.25866 17.7154 9.33325 17.4854C9.40784 17.2554 9.43239 17.0115 9.40518 16.7709V12.3676C9.40518 10.3643 10.4751 9.17411 12.1118 9.17411C13.7485 9.17411 14.5892 10.1627 14.5892 12.0359V16.7709C14.5623 17.0098 14.5864 17.2519 14.6599 17.4805C14.7334 17.709 14.8545 17.9186 15.0149 18.0947C15.1753 18.2709 15.3712 18.4095 15.589 18.5009C15.8069 18.5924 16.0415 18.6346 16.2769 18.6245Z" fill="currentColor"/>
</svg>
