<svg width="120" height="90" viewBox="0 0 120 90" fill="none" xmlns="http://www.w3.org/2000/svg">
<g id="_&#229;&#156;&#150;&#229;&#177;&#164;_1-2">
<g id="_&#229;&#156;&#150;&#231;&#168;&#191;_524">
<path id="Vector" d="M92.4995 55.83C91.4495 54.58 90.2895 53.34 89.0595 52.17C88.3095 53.88 87.0995 55.39 85.5995 56.49C84.7495 57.11 83.7995 57.6 82.7795 57.84C82.2295 57.96 81.6095 58.01 81.1295 57.69C81.0395 57.63 80.9495 57.56 80.8795 57.48C80.9695 57.33 81.0495 57.16 81.1295 57C81.0595 57.14 80.9795 57.28 80.8895 57.42C79.9995 58.98 78.9495 60.4 77.7395 61.69C73.2995 66.42 66.9795 69.1 60.2995 68.42C59.3195 68.32 58.3495 68.15 57.3895 67.91C57.4695 68.2 57.5095 68.5 57.4795 68.81C57.3595 70.25 55.9695 70.98 54.7395 71.02C55.9495 70.94 57.0095 71 57.7495 72.1C58.3395 72.96 58.4095 74.41 58.0195 75.37C56.6695 78.77 53.1895 78.85 50.2995 77.51C46.9395 75.94 45.0695 73.52 43.9795 70.01C42.7795 66.16 43.8695 63.33 46.1395 61.45C45.4595 60.72 44.8395 59.95 44.2995 59.13C42.9295 57.09 42.0595 54.79 41.5695 52.32C41.0195 49.5 40.9695 46.49 41.2895 43.4C41.3095 43.13 41.3395 42.88 41.3895 42.61C41.4195 42.29 41.4695 41.98 41.5195 41.68C41.6495 40.89 41.8195 40.09 42.0195 39.32C42.0295 39.28 42.0395 39.25 42.0495 39.22C42.0395 39.24 42.0295 39.27 42.0195 39.29C42.0895 39.01 42.1695 38.74 42.2495 38.46C41.5295 38.25 40.7895 38.14 40.0395 38.14C39.7495 38.14 39.4695 38.16 39.1795 38.19C38.9495 38.22 38.7295 38.26 38.4995 38.31C38.3595 38.34 38.2195 38.38 38.0895 38.43C37.9395 38.47 37.7995 38.52 37.6495 38.59C37.5495 38.62 37.4495 38.66 37.3495 38.71C37.2095 38.78 37.0695 38.85 36.9395 38.92C36.9295 38.92 36.9195 38.92 36.9095 38.94C36.6495 39.1 36.4095 39.27 36.1795 39.47C36.1095 39.53 36.0395 39.6 35.9695 39.67C35.8295 39.81 35.7095 39.95 35.5895 40.11C35.4995 40.24 35.4195 40.36 35.3495 40.5C35.3195 40.54 35.2995 40.58 35.2795 40.62C35.2295 40.71 35.1895 40.8 35.1595 40.9C35.1395 40.95 35.1195 41 35.0995 41.05C34.9895 41.36 34.9195 41.68 34.8695 42.01C34.8495 42.21 34.8295 42.4 34.8095 42.6C34.8095 42.69 34.7995 42.79 34.7995 42.89C34.7895 43.11 34.7895 43.34 34.7995 43.55C34.9395 44.6 35.1295 45.63 35.3895 46.63V46.66C35.4595 46.92 35.5295 47.18 35.6095 47.44C29.6195 50.94 25.9695 55.34 25.3395 59.88C24.6995 64.45 24.9195 71.62 34.3395 76.03C38.1895 78.06 43.5695 79.72 50.9795 80.89C53.5695 81.31 56.3995 81.65 59.4895 81.93C67.1195 82.62 73.1895 82.71 78.0495 82.32H78.0595C79.9695 82.15 81.6995 81.93 83.2495 81.62C92.0495 79.32 97.2695 75.14 97.4495 67.28C97.5695 62.54 95.6595 59.6 92.4995 55.83Z" stroke="#D6D6D6" stroke-width="0.75" stroke-linecap="round" stroke-linejoin="round"/>
<path id="Vector_2" d="M42.2388 38.4601C42.1588 38.7501 42.0788 39.0301 41.9988 39.3201C41.7988 40.1001 41.6188 40.8801 41.4988 41.6701C41.4488 41.9701 41.3888 42.2801 41.3588 42.5901C41.3188 42.8701 41.2788 43.1701 41.2488 43.4601C40.9388 46.5501 40.9888 49.5701 41.5388 52.3801C41.0488 52.5201 40.4988 52.3801 40.0188 52.1501C39.0688 51.7101 38.2288 51.0301 37.5288 50.2601C36.5788 49.2201 35.8588 47.9801 35.3888 46.6601C35.3888 46.6601 35.3788 46.6401 35.3788 46.6301C35.0388 45.6401 34.8388 44.6001 34.7988 43.5501C34.7988 43.3301 34.7988 43.1101 34.7988 42.8901C34.8188 42.1101 34.9288 41.3101 35.2788 40.6101C35.9888 39.1901 37.5888 38.3801 39.1688 38.1901C40.1988 38.0601 41.2488 38.1601 42.2388 38.4501V38.4601Z" stroke="#D6D6D6" stroke-width="0.75" stroke-linecap="round" stroke-linejoin="round"/>
<path id="Vector_3" d="M41.5102 41.68C41.4602 41.98 41.4102 42.3 41.3802 42.61C41.2502 42.44 41.1302 42.26 41.0002 42.11C39.8202 40.62 38.3202 41.03 36.7402 41.64C37.9802 39.96 40.4502 39.7 41.5202 41.68H41.5102Z" fill="#D6D6D6"/>
<path id="Vector_4" d="M89.8987 48.7501V48.7701C89.8887 49.1301 89.8387 49.4901 89.7787 49.8401C89.6387 50.6501 89.3887 51.4301 89.0587 52.1801C88.3087 53.8901 87.0987 55.4001 85.5987 56.5001C84.7487 57.1201 83.7987 57.6101 82.7787 57.8401C82.2287 57.9701 81.6087 58.0101 81.1387 57.6901C81.0387 57.6301 80.9587 57.5601 80.8887 57.4801C81.1087 57.1101 81.3087 56.7301 81.4987 56.3401C81.8587 55.6201 82.1987 54.8701 82.4887 54.1101C82.5987 53.8301 82.7087 53.5501 82.7887 53.2601C82.8587 53.1201 82.9087 52.9601 82.9487 52.8101C83.1987 52.0401 83.4087 51.2501 83.5787 50.4401C83.7587 49.5901 83.8887 48.7201 83.9887 47.8401C83.9987 47.7101 84.0187 47.5801 84.0187 47.4501C84.0487 47.1501 84.0687 46.8401 84.0687 46.5301C84.1187 45.6701 84.1087 44.8201 84.0487 43.9601H84.0787C84.8887 43.9601 85.6787 44.0801 86.4387 44.3501C87.9587 44.8601 89.3587 45.9701 89.7687 47.5101C89.8787 47.9201 89.9187 48.3401 89.9087 48.7601L89.8987 48.7501Z" stroke="#D6D6D6" stroke-width="0.75" stroke-linecap="round" stroke-linejoin="round"/>
<path id="Vector_5" d="M88.6304 48.8201C87.4204 47.6201 86.2204 46.6401 84.5304 47.5301C84.3104 47.6401 84.1104 47.7501 83.9004 47.8901C84.0004 47.6001 84.0704 47.3101 84.1404 47.0101C84.1404 47.0101 84.1604 46.9901 84.1704 46.9801C85.9604 45.5301 88.1604 46.7801 88.6204 48.8301L88.6304 48.8201Z" fill="#D6D6D6"/>
<path id="Vector_6" d="M91.139 35.9101C91.139 35.9101 91.129 35.9101 91.129 35.9001C91.089 35.8801 91.049 35.8401 90.999 35.7901C90.989 35.7901 90.989 35.7801 90.979 35.7701C90.919 35.7101 90.849 35.6201 90.769 35.5201C90.719 35.4501 90.659 35.3801 90.579 35.2901C90.539 35.2401 90.499 35.1901 90.449 35.1401C90.399 35.0901 90.349 35.0401 90.299 34.9801C90.239 34.9001 90.169 34.8201 90.099 34.7301C90.039 34.6601 89.979 34.5901 89.929 34.5101C89.899 34.4801 89.879 34.4601 89.859 34.4301C89.599 34.1101 89.349 33.7901 89.079 33.4801C88.999 33.3701 88.909 33.2701 88.819 33.1701C88.799 33.1501 88.779 33.1201 88.759 33.1001C88.709 33.0301 88.649 32.9701 88.589 32.9001C88.339 32.6201 88.099 32.3401 87.849 32.0701C87.819 32.0401 87.799 32.0101 87.759 31.9801C87.739 31.9501 87.709 31.9201 87.689 31.9001C87.379 31.5601 87.049 31.2201 86.719 30.8901C86.699 30.8701 86.679 30.8501 86.669 30.8401C86.359 30.5301 86.049 30.2301 85.729 29.9401C85.669 29.8801 85.609 29.8301 85.549 29.7701C85.199 29.4501 84.839 29.1401 84.469 28.8301C84.219 28.6201 83.959 28.4101 83.689 28.2201C83.519 28.0601 83.339 27.9201 83.159 27.8001H83.149C82.969 27.6601 82.799 27.5301 82.619 27.4101C82.349 27.2001 82.069 27.0001 81.779 26.8201C81.709 26.7701 81.649 26.7201 81.579 26.6801C81.379 26.5301 81.169 26.4001 80.949 26.2701C80.809 26.1701 80.659 26.0801 80.519 25.9901C80.469 25.9601 80.429 25.9301 80.379 25.9101C80.259 25.8301 80.129 25.7501 79.999 25.6801C79.939 25.6401 79.879 25.6001 79.819 25.5701C79.579 25.4301 79.339 25.2901 79.089 25.1501C79.039 25.1301 78.989 25.1001 78.939 25.0701C78.499 24.8301 78.049 24.5901 77.579 24.3601C77.159 24.1501 76.719 23.9401 76.269 23.7301C76.169 23.6801 76.079 23.6401 75.979 23.5901C75.749 23.4801 75.519 23.3801 75.279 23.2801C75.229 23.2601 75.189 23.2401 75.149 23.2201C74.929 23.1301 74.719 23.0401 74.499 22.9501C74.139 22.8001 73.769 22.6501 73.389 22.5001C72.789 22.2601 72.169 22.0301 71.529 21.8001C70.889 21.5701 70.229 21.3401 69.549 21.1201C68.869 20.8901 68.169 20.6701 67.449 20.4601C67.089 20.3501 66.719 20.2401 66.349 20.1301C65.649 19.9301 64.939 19.7301 64.219 19.5501C63.829 19.4501 63.439 19.3501 63.049 19.2601C62.899 19.2301 62.749 19.1901 62.599 19.1501C62.389 19.1001 62.169 19.0501 61.949 19.0001C61.779 18.9601 61.599 18.9201 61.419 18.8801C60.899 18.7601 60.369 18.6501 59.839 18.5501C59.109 18.4101 58.369 18.2701 57.629 18.1501C55.949 17.8601 54.269 17.6301 52.639 17.4701C51.819 17.3801 51.009 17.3201 50.219 17.2701C49.639 17.2301 49.069 17.2001 48.509 17.1801H48.459C48.129 17.1601 47.809 17.1501 47.489 17.1601C46.889 17.1401 46.289 17.1501 45.719 17.1601C39.699 21.7501 35.519 28.7101 34.689 36.8401C34.449 39.1301 34.499 41.3701 34.799 43.5501C34.789 43.3401 34.789 43.1101 34.799 42.8901C34.799 42.7901 34.809 42.6901 34.809 42.6001C34.829 42.4001 34.849 42.2101 34.869 42.0101C34.919 41.6801 34.989 41.3601 35.099 41.0501C35.119 41.0001 35.139 40.9501 35.159 40.9001C35.189 40.8001 35.229 40.7101 35.279 40.6201C35.299 40.5801 35.319 40.5401 35.349 40.5001C35.419 40.3701 35.499 40.2401 35.589 40.1201C35.709 39.9501 35.829 39.8101 35.969 39.6701C36.039 39.6001 36.109 39.5301 36.179 39.4701C36.409 39.2701 36.649 39.1001 36.909 38.9401C36.989 38.9001 37.069 38.8501 37.159 38.8101C37.219 38.7701 37.289 38.7401 37.349 38.7101C37.449 38.6601 37.549 38.6201 37.649 38.5901C37.799 38.5201 37.939 38.4701 38.089 38.4301C38.219 38.3801 38.359 38.3401 38.499 38.3101C38.729 38.2601 38.949 38.2201 39.179 38.1901C39.469 38.1601 39.749 38.1401 40.039 38.1401C40.789 38.1401 41.529 38.2501 42.249 38.4601H42.329C45.659 29.8801 52.319 25.1901 59.419 22.1901C61.639 28.8101 65.809 34.5201 71.269 38.4601C72.699 39.4901 74.219 40.3901 75.819 41.1601C75.819 41.1601 75.869 41.1901 75.949 41.2201C76.059 41.2701 76.219 41.3401 76.429 41.4401C77.109 41.7401 78.269 42.2501 79.569 42.7301C79.779 42.8101 79.979 42.8901 80.189 42.9601C80.459 43.0601 80.749 43.1501 81.029 43.2401C82.049 43.5601 83.049 43.8301 83.899 43.9401L84.039 43.9601H84.069C84.919 44.0501 85.449 44.1001 85.899 44.2001C85.929 44.2101 85.969 44.2101 85.999 44.2201C86.029 44.2301 86.049 44.2301 86.079 44.2401C86.139 44.2601 86.199 44.2801 86.259 44.3001C86.319 44.3001 86.369 44.3301 86.419 44.3501C86.479 44.3701 86.529 44.3801 86.579 44.4101C86.639 44.4201 86.699 44.4501 86.749 44.4701C86.829 44.5001 86.909 44.5401 86.989 44.5701C87.179 44.6501 87.359 44.7401 87.529 44.8401C87.749 44.9601 87.959 45.0901 88.159 45.2501C88.259 45.3101 88.359 45.3901 88.449 45.4901H88.459C88.549 45.5701 88.639 45.6601 88.719 45.7501C88.909 45.9201 89.089 46.1301 89.229 46.3601C89.249 46.3801 89.259 46.4101 89.269 46.4301C89.309 46.4801 89.339 46.5401 89.369 46.5901C89.439 46.7001 89.499 46.8301 89.559 46.9601C89.639 47.1301 89.699 47.3201 89.749 47.5101C89.809 47.6801 89.839 47.8701 89.859 48.0501C89.889 48.2901 89.899 48.5201 89.889 48.7501C90.219 47.8401 90.499 46.8601 90.719 45.8301C91.159 43.5001 91.319 41.6501 91.319 41.6501C91.459 39.6901 91.379 37.7701 91.129 35.9101H91.139Z" stroke="#D6D6D6" stroke-width="0.75" stroke-linecap="round" stroke-linejoin="round"/>
<path id="Vector_7" d="M84.0697 43.9601H84.0497L83.9097 43.9401C83.0597 43.8301 82.0597 43.5601 81.0397 43.2401C80.7597 43.1501 80.4697 43.0601 80.1997 42.9601C79.9897 42.8901 79.7897 42.8101 79.5797 42.7301C78.2797 42.2501 77.1197 41.7401 76.4397 41.4401C76.2297 41.3401 76.0697 41.2701 75.9597 41.2201C75.8797 41.1901 75.8297 41.1601 75.8297 41.1601C74.2297 40.3901 72.7097 39.4901 71.2797 38.4601C65.8197 34.5201 61.6497 28.8101 59.4297 22.1901C52.3297 25.1901 45.6697 29.8801 42.3397 38.4701L42.0597 39.2201C42.0597 39.2201 42.0397 39.2801 42.0297 39.3201C41.8297 40.0901 41.6597 40.8901 41.5297 41.6801C41.4797 41.9801 41.4297 42.2901 41.3997 42.6001C41.3497 42.8801 41.3197 43.1301 41.2997 43.4001C40.9797 46.4901 41.0297 49.5001 41.5797 52.3201C42.0697 54.7901 42.9397 57.0901 44.3097 59.1301C44.8497 59.9501 45.4697 60.7201 46.1497 61.4501C48.0197 59.9001 50.6797 59.0101 53.5197 58.7301C55.5097 58.5401 60.7997 58.9101 59.5297 62.3301C58.5797 64.8601 53.5797 64.8901 51.3097 64.9901C52.7097 64.9301 54.4197 64.9701 55.6397 65.7701C56.4197 66.2801 57.1497 67.0201 57.3997 67.9101C58.3597 68.1501 59.3297 68.3201 60.3097 68.4201C66.9897 69.1001 73.3097 66.4201 77.7497 61.6901C78.9597 60.4001 80.0097 58.9801 80.8997 57.4201C81.0097 57.2501 81.0997 57.0801 81.1997 56.9101C81.2997 56.7201 81.3997 56.5301 81.4997 56.3401C81.8597 55.6201 82.1997 54.8701 82.4997 54.1001C82.6097 53.8301 82.7097 53.5401 82.7997 53.2601C82.8497 53.1301 82.8997 53.0001 82.9397 52.8701C82.9497 52.8501 82.9497 52.8201 82.9597 52.8001C82.9897 52.7101 83.0197 52.6301 83.0397 52.5401C83.2297 51.9401 83.3997 51.3101 83.5397 50.6701C83.5597 50.5901 83.5697 50.5101 83.5897 50.4301C83.5897 50.4101 83.5997 50.3801 83.5997 50.3601C83.5997 50.3201 83.6197 50.2801 83.6297 50.2401C83.7897 49.4701 83.9197 48.6601 83.9997 47.8401L84.0097 47.7801C84.0197 47.6901 84.0197 47.5901 84.0297 47.5101V47.4501C84.0697 47.1401 84.0897 46.8101 84.0997 46.5001C84.1397 45.6501 84.1397 44.8101 84.0797 43.9601H84.0697Z" stroke="#D6D6D6" stroke-width="0.75" stroke-linecap="round" stroke-linejoin="round"/>
<path id="Vector_8" d="M48.4792 41.49C45.8892 41.22 43.5692 43.11 43.3092 45.7C43.0492 48.28 44.9292 50.6 47.5192 50.87C50.1092 51.14 52.4192 49.26 52.6892 46.66C52.9592 44.07 51.0792 41.75 48.4792 41.49ZM46.2692 44.46C45.8592 44.44 45.5492 44.1 45.5692 43.69C45.5992 43.28 45.9392 42.97 46.3492 42.99C46.7592 43.01 47.0692 43.36 47.0492 43.77C47.0192 44.18 46.6792 44.49 46.2692 44.46Z" fill="#D6D6D6"/>
<path id="Vector_9" d="M90.1087 63.5C90.8287 63.76 91.0387 64.71 90.4787 65.24C89.9087 64.8 89.7687 64.13 90.1087 63.5Z" fill="#D6D6D6"/>
<path id="Vector_10" d="M91.7293 61.41C92.5993 62.08 93.1093 63.14 93.3193 64.2C93.7093 66.35 92.9993 68.6 92.0293 70.49C91.5093 71.43 90.7793 72.33 89.7793 72.78C90.5493 72.04 91.0493 71.15 91.4293 70.21C92.4593 67.43 93.4893 64.13 91.7293 61.41Z" fill="#D6D6D6"/>
<path id="Vector_11" d="M32.3586 55.41C31.7686 56.63 30.9686 57.82 30.2786 58.98C30.0386 59.37 29.7886 59.76 29.5186 60.15L29.4686 60.03V60.05C29.5186 60.07 29.5886 60.02 29.5886 59.95C29.6386 59.99 29.6286 60.08 29.5886 60.13C29.5486 60.2 29.4486 60.24 29.3586 60.21L29.3086 60.19V60.09C29.4686 58.24 30.6886 56.28 32.3486 55.42L32.3586 55.41Z" fill="#D6D6D6"/>
<path id="Vector_12" d="M33.46 57.0901C33.17 58.0401 32.63 59.2601 32.27 60.1801C31.88 61.1001 31.42 62.3301 30.96 63.2201C30.71 61.0601 31.78 58.4601 33.46 57.0901Z" fill="#D6D6D6"/>
<path id="Vector_13" d="M78.5691 13.9501C76.9491 12.7801 75.2291 11.6901 73.4091 10.7001C72.9291 10.4401 72.3191 10.1401 71.6191 9.85006C72.3891 7.94006 74.3091 8.21006 77.2191 11.8201C77.6691 12.3801 78.1191 13.1101 78.5691 13.9501Z" stroke="#D6D6D6" stroke-width="0.75" stroke-linecap="round" stroke-linejoin="round"/>
<path id="Vector_14" d="M92.1987 33.18C92.1687 33.75 92.1987 33.9 92.0887 34.46V34.49C92.0387 34.75 91.9787 35 91.9087 35.26C91.8287 35.45 91.7387 35.62 91.6287 35.73C91.4087 35.96 91.2687 36 91.1387 35.91C90.9487 35.8 90.7387 35.43 90.2987 34.99C90.1587 34.81 90.0087 34.62 89.8587 34.44C84.3887 27.55 78.2687 23.6 66.3487 20.15C59.5587 18.18 51.7487 17.03 45.7187 17.18C45.3187 17.18 44.9287 17.2 44.5587 17.22C44.4587 17.22 44.3487 17.22 44.2587 17.22C44.2587 17.22 44.2387 17.22 44.2287 17.22C43.7887 17.22 43.4187 17.06 43.3487 16.27C43.3087 15.9 43.5187 15.37 43.7587 14.92C44.7787 13.02 52.7287 7.56005 61.1987 7.48005C64.6487 7.44005 68.8487 8.71005 71.6187 9.88005L72.3687 10.21C72.5587 10.31 72.7387 10.39 72.9187 10.48C73.0987 10.57 73.2587 10.65 73.4087 10.73C75.2287 11.71 76.9487 12.81 78.5687 13.98C83.1587 17.31 86.8987 21.33 89.4587 25.74C89.4787 25.78 89.4987 25.81 89.5187 25.84C89.6287 26.02 89.7287 26.22 89.8287 26.4C89.9587 26.62 90.0687 26.83 90.1887 27.05C91.2587 29.09 91.7787 29.99 92.0087 31.55C92.0187 31.66 92.0387 31.77 92.0487 31.88C92.0887 32.15 92.2187 32.9 92.1887 33.2L92.1987 33.18Z" stroke="#D6D6D6" stroke-width="0.75" stroke-linecap="round" stroke-linejoin="round"/>
<path id="Vector_15" d="M92.049 31.8601C92.039 31.7501 92.019 31.6401 92.009 31.5301C91.769 29.9701 91.249 29.0701 90.189 27.0301C90.069 26.8201 89.949 26.6001 89.829 26.3801C89.739 26.2001 89.629 26.0001 89.519 25.8201C89.499 25.7901 89.479 25.7601 89.459 25.7201C88.699 25.5401 88.159 25.5601 87.599 25.5901C86.599 25.6401 85.519 25.7001 82.979 24.5701C71.239 19.2801 58.469 13.9601 46.439 16.6201C45.689 16.7801 44.949 16.9801 44.209 17.2101C44.209 17.2101 44.229 17.2101 44.239 17.2101C44.329 17.2101 44.439 17.2101 44.539 17.2101C44.919 17.1901 45.299 17.1801 45.699 17.1701C51.719 17.0201 59.539 18.1701 66.329 20.1401C78.249 23.5901 84.369 27.5401 89.839 34.4301C89.989 34.6101 90.139 34.8001 90.279 34.9801C90.719 35.4201 90.929 35.7901 91.119 35.9001C91.259 35.9901 91.389 35.9401 91.609 35.7201C91.719 35.6001 91.809 35.4401 91.889 35.2501C91.959 34.9901 92.019 34.7401 92.069 34.4801V34.4501C92.189 33.9001 92.149 33.7401 92.179 33.1701C92.199 32.8701 92.079 32.1201 92.039 31.8501L92.049 31.8601Z" fill="#D6D6D6" stroke="#D6D6D6" stroke-width="0.75" stroke-linecap="round" stroke-linejoin="round"/>
<path id="Vector_16" d="M77.2402 45.25C74.6602 44.98 72.3402 46.87 72.0802 49.46C71.8002 52.04 73.6902 54.36 76.2802 54.63C78.8802 54.9 81.1902 53.01 81.4602 50.42C81.7202 47.83 79.8402 45.51 77.2402 45.25ZM75.0402 48.22C74.6302 48.2 74.3202 47.85 74.3402 47.45C74.3602 47.04 74.7002 46.73 75.1102 46.75C75.5202 46.77 75.8302 47.12 75.8102 47.53C75.7902 47.93 75.4402 48.25 75.0402 48.22Z" fill="#D6D6D6"/>
</g>
<path id="Vector_17" d="M58.1443 42.6052C58.3009 41.328 57.6768 40.2005 56.7504 40.0869C55.824 39.9733 54.946 40.9166 54.7894 42.1939C54.6328 43.4712 55.2569 44.5987 56.1833 44.7123C57.1097 44.8258 57.9877 43.8825 58.1443 42.6052Z" fill="#D6D6D6"/>
<path id="Vector_18" d="M70.949 44.2512C71.1056 42.974 70.4815 41.8465 69.5551 41.7329C68.6287 41.6193 67.7507 42.5627 67.5941 43.8399C67.4375 45.1172 68.0616 46.2447 68.988 46.3583C69.9144 46.4718 70.7924 45.5285 70.949 44.2512Z" fill="#D6D6D6"/>
<path id="Vector_19" d="M63.8002 51.57C61.2902 51.82 57.9802 50.17 57.9802 50.17C57.5002 50 56.9802 49.84 56.4302 49.76C56.0202 49.7 55.5802 49.7 55.1302 49.79C54.6902 49.88 54.2402 50.09 53.8402 50.41L53.8002 50.44C53.4902 50.71 53.2402 50.99 53.0502 51.29C52.8602 51.59 52.7402 51.92 52.7002 52.26C52.6702 52.49 52.6702 52.72 52.7002 52.94C52.7602 53.33 52.9102 53.68 53.1202 53.99C53.4302 54.45 53.8402 54.83 54.3102 55.12C54.3102 55.12 54.3302 55.13 54.3402 55.14C54.5802 55.29 54.8402 55.42 55.1102 55.52C55.3502 55.61 55.6002 55.69 55.8502 55.74C56.0102 55.77 56.1702 55.8 56.3302 55.82C56.3302 55.82 58.6602 56.06 59.9702 56.21C62.3602 56.48 64.1402 57.06 65.5302 57.26C66.9202 57.46 67.9602 57.13 67.9602 57.13C68.3302 57.01 68.7002 56.8 68.9902 56.48C69.1302 56.32 69.2602 56.14 69.3602 55.94C69.4602 55.74 69.5402 55.53 69.5902 55.3C69.6202 55.19 69.6402 55.08 69.6502 54.97C69.7002 54.63 69.6802 54.29 69.6102 53.98C69.5502 53.71 69.4402 53.45 69.3002 53.22C69.0502 52.82 68.7002 52.54 68.3502 52.26C67.0702 51.22 64.9502 51.46 63.8102 51.57H63.8002Z" stroke="#D6D6D6" stroke-width="0.75" stroke-linecap="round" stroke-linejoin="round"/>
<g id="Vector_20">
<path d="M59.0802 35.3101C57.9002 36.1801 56.3502 36.5301 54.9102 36.2701L59.0802 35.3101Z" fill="white"/>
<path d="M59.0802 35.3101C57.9002 36.1801 56.3502 36.5301 54.9102 36.2701" stroke="#D6D6D6" stroke-width="0.75" stroke-linecap="round" stroke-linejoin="round"/>
</g>
<path id="Vector_21" d="M109.619 20.89C105.069 18.97 99.8293 21.1 97.9093 25.66C96.2893 29.5 97.5693 33.84 100.749 36.25L101.189 39.77C101.239 40.16 101.689 40.35 101.999 40.11L104.829 37.97C108.769 38.56 112.769 36.45 114.389 32.61C116.309 28.06 114.179 22.82 109.619 20.9V20.89ZM104.949 33.48C104.759 33.82 104.329 33.94 103.989 33.75C103.649 33.56 103.529 33.13 103.719 32.79C103.909 32.45 104.339 32.33 104.679 32.52C105.019 32.71 105.139 33.14 104.949 33.48ZM110.309 28.59C109.859 29.6 108.789 29.81 107.809 29.93C106.899 30.05 105.959 30.24 105.639 31.23C105.419 31.92 104.329 31.62 104.549 30.93C104.899 29.85 105.769 29.15 106.869 28.94C107.539 28.81 108.509 28.89 109.059 28.42C109.689 27.89 109.349 26.78 108.989 26.2C108.039 24.67 105.899 24.58 104.739 25.91C104.259 26.46 103.459 25.66 103.939 25.11C104.729 24.2 105.989 23.71 107.189 23.85C108.289 23.97 109.239 24.57 109.869 25.48C110.479 26.35 110.759 27.6 110.319 28.6L110.309 28.59Z" fill="#D6D6D6"/>
<path id="Vector_22" d="M11.061 34.23C6.37098 35.77 3.82098 40.83 5.36097 45.52C6.66097 49.48 10.471 51.91 14.451 51.64L17.101 54.01C17.391 54.27 17.861 54.12 17.941 53.74L18.671 50.26C22.031 48.12 23.661 43.9 22.361 39.94C20.821 35.25 15.761 32.7 11.071 34.24L11.061 34.23ZM15.261 47.62C14.881 47.7 14.511 47.45 14.431 47.07C14.351 46.69 14.601 46.32 14.981 46.24C15.361 46.16 15.731 46.41 15.811 46.79C15.891 47.17 15.641 47.54 15.261 47.62ZM15.781 42.08C15.161 42.79 14.401 43.58 14.831 44.6C14.951 44.88 14.921 45.2 14.631 45.37C14.391 45.51 13.981 45.45 13.861 45.17C13.371 44.02 13.621 42.92 14.391 41.96C14.791 41.46 15.521 40.91 15.601 40.23C15.691 39.42 14.691 38.81 14.031 38.63C12.351 38.16 10.681 39.43 10.681 41.18C10.681 41.91 9.55097 41.91 9.55097 41.18C9.55097 39.96 10.151 38.82 11.131 38.09C12.821 36.83 15.791 37.36 16.601 39.44C16.991 40.45 16.431 41.35 15.781 42.08Z" fill="#D6D6D6"/>
</g>
</svg>
